<?xml version="1.0" standalone="no"?>
<!DOCTYPE svg PUBLIC "-//W3C//DTD SVG 20010904//EN"
 "http://www.w3.org/TR/2001/REC-SVG-20010904/DTD/svg10.dtd">
<svg version="1.0" xmlns="http://www.w3.org/2000/svg"
 width="650.000000pt" height="1280.000000pt" viewBox="0 0 650.000000 1280.000000"
 preserveAspectRatio="xMidYMid meet">
<g transform="translate(0.000000,1280.000000) scale(0.100000,-0.100000)"
fill="#8a0303" stroke="none">
<path d="M4733 12780 c-69 -42 -34 -119 54 -120 33 0 46 5 62 26 27 35 26 59
-4 89 -29 30 -68 32 -112 5z"/>
<path d="M4526 12719 c-32 -38 -33 -53 -1 -84 30 -31 69 -32 89 -3 32 46 8
118 -39 118 -14 0 -34 -12 -49 -31z"/>
<path d="M4 12609 c15 -91 113 -259 152 -259 26 0 16 72 -21 149 -44 92 -90
151 -117 151 -18 0 -20 -4 -14 -41z"/>
<path d="M3832 12064 c-27 -19 -26 -57 1 -62 11 -2 32 9 48 24 28 26 29 30 13
41 -23 17 -35 16 -62 -3z"/>
<path d="M320 11939 c0 -41 55 -171 84 -198 23 -22 24 -22 30 -3 14 44 -70
232 -104 232 -6 0 -10 -14 -10 -31z"/>
<path d="M504 11568 c9 -60 98 -237 136 -273 l33 -30 -6 39 c-11 70 -134 306
-159 306 -7 0 -8 -16 -4 -42z"/>
<path d="M2853 10691 c-29 -10 -71 -30 -93 -46 -67 -47 -167 -162 -202 -233
-28 -57 -33 -77 -33 -142 0 -90 19 -133 105 -238 90 -110 94 -122 100 -308 5
-171 12 -194 55 -194 13 0 33 8 46 18 19 16 24 35 35 135 16 148 32 176 182
325 145 145 155 166 156 322 0 164 -28 247 -114 323 -63 58 -143 71 -237 38z"/>
<path d="M1110 10271 c-66 -35 -75 -54 -74 -145 2 -131 57 -254 195 -431 80
-104 176 -292 262 -515 31 -80 95 -246 143 -370 48 -124 153 -380 234 -570 81
-190 285 -685 453 -1100 168 -415 463 -1137 657 -1605 194 -467 401 -972 460
-1120 124 -311 203 -480 318 -687 218 -390 248 -488 259 -838 7 -225 4 -234
-89 -281 -142 -72 -269 -269 -285 -444 -8 -89 9 -139 60 -177 91 -67 341 -168
416 -168 31 0 49 9 87 40 66 54 86 52 165 -16 85 -74 147 -109 249 -140 102
-31 150 -59 150 -85 0 -21 -6 -24 -62 -34 -91 -15 -318 -300 -318 -399 0 -41
36 -90 115 -155 90 -74 115 -117 121 -214 9 -132 44 -226 114 -311 106 -128
238 -186 425 -186 118 0 191 39 338 179 95 91 159 174 203 265 36 74 56 95 92
96 17 0 24 -7 29 -30 8 -41 34 -53 105 -48 71 5 109 31 122 81 15 59 -28 131
-149 251 -119 117 -185 197 -220 265 -51 101 -109 140 -135 91 -14 -26 5 -62
65 -130 54 -61 86 -121 125 -239 34 -102 40 -171 13 -171 -25 0 -104 64 -254
206 -75 71 -163 145 -195 164 -63 38 -51 37 -304 27 -45 -2 -45 -2 -48 35 -3
40 21 108 38 108 6 0 20 -5 30 -10 31 -17 85 12 122 65 44 63 58 105 65 203 4
56 10 82 19 82 7 0 36 -21 66 -46 56 -49 112 -79 128 -69 17 11 11 54 -17 118
-26 58 -28 71 -28 202 0 124 3 151 28 237 34 115 33 139 -8 152 -50 17 -155
89 -247 170 -94 82 -121 116 -92 116 44 0 244 -133 277 -184 20 -30 53 -42 72
-26 33 27 10 103 -51 170 -46 50 -81 70 -116 63 -22 -4 -30 2 -57 41 -36 52
-50 61 -115 76 -73 16 -121 3 -178 -46 -55 -49 -74 -53 -133 -24 -58 28 -113
85 -212 216 -97 130 -118 149 -162 139 -27 -6 -33 -2 -62 37 -37 51 -130 238
-159 322 -27 78 -25 112 5 148 30 36 30 38 4 72 -13 17 -34 28 -60 32 -48 8
-83 53 -128 165 -50 126 -104 239 -206 425 -264 480 -895 1841 -1443 3110
-368 851 -435 1001 -507 1124 -23 41 -55 116 -70 165 -15 50 -88 241 -162 425
-106 262 -136 346 -137 385 l-1 50 65 31 c77 37 125 87 141 146 35 132 -71
312 -259 440 -143 97 -219 117 -292 79z"/>
<path d="M3902 10131 c-98 -34 -181 -138 -182 -227 0 -131 189 -301 310 -278
82 16 134 58 194 158 66 111 58 197 -28 282 -80 81 -183 103 -294 65z"/>
<path d="M142 9998 c-17 -17 -15 -32 6 -51 26 -23 46 -21 79 8 27 24 28 25 9
40 -24 18 -77 20 -94 3z"/>
<path d="M545 9020 c-10 -33 5 -99 30 -128 20 -23 25 -25 40 -12 26 22 15 94
-21 131 -33 34 -41 36 -49 9z"/>
<path d="M690 8856 c0 -15 14 -41 34 -63 18 -21 38 -48 45 -60 16 -30 14 -89
-4 -123 -15 -28 -19 -30 -74 -30 -177 0 -262 -67 -139 -110 52 -18 76 -61 103
-184 33 -155 86 -226 220 -292 74 -37 84 -39 169 -39 82 0 96 3 146 30 30 17
85 60 121 96 151 150 179 321 83 511 -69 136 -169 190 -427 228 -78 12 -160
28 -182 37 -22 8 -52 17 -67 20 -25 5 -28 2 -28 -21z"/>
<path d="M291 8815 c-77 -70 -95 -163 -42 -216 22 -22 39 -29 68 -29 75 0 213
89 213 137 0 58 -96 143 -161 143 -30 0 -48 -8 -78 -35z"/>
<path d="M2435 8488 c-76 -39 -148 -123 -147 -169 1 -50 94 -184 155 -224 50
-32 174 25 228 105 66 98 20 260 -84 299 -44 17 -108 12 -152 -11z"/>
<path d="M3703 8391 c-45 -21 -73 -62 -73 -106 0 -60 73 -151 146 -181 74 -31
160 -10 189 46 35 68 -1 200 -67 240 -44 26 -137 27 -195 1z"/>
<path d="M221 8156 c-18 -21 -10 -97 11 -110 26 -16 72 22 76 62 5 48 -59 83
-87 48z"/>
<path d="M4172 8107 c-44 -46 -14 -117 48 -117 63 0 93 75 47 118 -30 28 -68
28 -95 -1z"/>
<path d="M3681 7961 c-29 -18 13 -151 47 -151 19 0 82 61 82 79 0 12 -41 47
-77 65 -37 19 -34 18 -52 7z"/>
<path d="M4540 7945 c-11 -28 -1 -64 24 -85 23 -18 73 -17 93 3 14 13 14 20 3
47 -25 61 -102 84 -120 35z"/>
<path d="M4731 7918 c-11 -31 -2 -58 23 -68 47 -17 61 18 25 64 -25 32 -37 33
-48 4z"/>
<path d="M5064 7914 c-52 -18 -74 -47 -74 -99 0 -53 29 -92 73 -100 73 -14
124 40 114 122 -8 74 -46 100 -113 77z"/>
<path d="M1238 7879 c-24 -13 -23 -56 1 -69 47 -24 121 -1 121 38 0 33 -83 54
-122 31z"/>
<path d="M2893 7883 c-30 -6 -46 -28 -38 -54 12 -36 74 -97 112 -110 30 -10
39 -9 61 8 32 24 44 63 28 95 -18 38 -106 71 -163 61z"/>
<path d="M5429 7811 c-24 -24 -29 -38 -29 -76 0 -38 5 -52 29 -76 24 -24 38
-29 75 -29 38 0 48 4 63 26 9 14 18 50 21 79 4 47 1 57 -21 79 -38 38 -98 36
-138 -3z"/>
<path d="M3063 7300 c-121 -25 -250 -146 -326 -308 -38 -81 -44 -148 -23 -233
41 -163 127 -271 281 -353 143 -77 182 -113 140 -130 -26 -9 -48 -75 -41 -119
10 -60 32 -95 122 -188 l84 -87 -6 -45 c-17 -125 93 -204 178 -128 30 27 33
35 33 85 0 54 -2 59 -42 97 -48 45 -53 67 -22 95 12 10 33 39 48 64 21 37 26
57 26 115 0 89 -24 145 -76 180 -57 38 -52 56 44 149 129 125 175 246 150 393
-36 207 -199 367 -416 408 -86 16 -93 17 -154 5z"/>
<path d="M5683 5090 c-30 -12 -43 -41 -43 -94 0 -43 24 -86 48 -86 32 0 85 26
106 51 68 80 -10 170 -111 129z"/>
<path d="M4743 4943 c-80 -89 -115 -232 -79 -328 22 -56 106 -135 145 -135 14
0 58 17 96 38 53 29 74 47 88 75 17 34 17 40 3 89 -19 64 -96 203 -143 258
-20 22 -44 40 -55 40 -11 0 -36 -17 -55 -37z"/>
<path d="M4211 4692 c-99 -50 -99 -174 -1 -239 39 -27 70 -29 115 -7 100 47
128 198 46 247 -38 22 -117 22 -160 -1z"/>
<path d="M2430 4645 c-26 -31 5 -119 53 -149 61 -38 138 -18 122 33 -11 34
-64 90 -106 112 -46 23 -53 23 -69 4z"/>
<path d="M4713 4140 c-18 -10 -39 -30 -48 -44 -15 -22 -15 -28 -2 -53 31 -59
85 -93 149 -93 78 0 117 49 98 121 -22 79 -122 115 -197 69z"/>
<path d="M3058 4065 c-10 -22 -8 -33 10 -70 12 -25 26 -45 32 -45 15 0 30 35
30 70 0 66 -48 96 -72 45z"/>
<path d="M2011 4007 c-49 -39 -121 -132 -121 -157 0 -54 137 -190 191 -190 66
0 189 140 189 214 0 50 -137 166 -196 166 -12 0 -40 -15 -63 -33z"/>
<path d="M2874 3906 c-43 -19 -138 -116 -166 -169 -16 -29 -22 -60 -22 -102
-1 -77 34 -143 116 -221 57 -55 60 -56 106 -52 54 5 163 57 206 96 48 45 66
97 66 190 0 103 -16 142 -79 188 -45 32 -158 84 -184 84 -6 -1 -26 -7 -43 -14z"/>
<path d="M5049 3890 c-44 -43 -37 -74 16 -78 45 -3 105 27 105 53 0 24 -37 55
-66 55 -15 0 -38 -12 -55 -30z"/>
<path d="M4260 3824 c0 -19 36 -91 51 -100 15 -9 29 15 21 35 -17 47 -72 97
-72 65z"/>
<path d="M3637 3543 c-29 -28 31 -124 88 -143 31 -10 40 -10 52 3 18 18 11 46
-24 87 -38 45 -97 72 -116 53z"/>
<path d="M4575 3380 c-45 -29 -77 -77 -83 -126 -4 -38 -1 -47 25 -73 21 -20
44 -31 77 -36 93 -14 158 14 171 76 14 62 -73 179 -133 179 -15 0 -41 -9 -57
-20z"/>
<path d="M3826 3351 c-43 -47 44 -107 98 -68 15 11 17 17 7 35 -11 20 -59 52
-79 52 -5 0 -17 -9 -26 -19z"/>
<path d="M3682 3018 c-19 -19 -14 -55 10 -72 19 -13 25 -14 43 -2 24 16 31 51
15 72 -15 17 -52 18 -68 2z"/>
<path d="M5465 1620 c-13 -21 44 -88 64 -75 15 9 14 58 -1 73 -14 14 -54 16
-63 2z"/>
<path d="M6166 889 c-40 -31 -32 -63 16 -67 47 -4 78 12 78 41 0 49 -48 62
-94 26z"/>
<path d="M6014 731 c-71 -36 -151 -113 -190 -184 -26 -46 -29 -62 -29 -142 0
-79 4 -97 28 -148 38 -76 146 -185 218 -220 66 -33 139 -43 195 -28 123 33
247 187 261 325 10 101 -48 238 -142 331 -67 68 -113 88 -205 93 -68 3 -81 0
-136 -27z"/>
<path d="M4305 602 c-49 -30 -95 -89 -95 -123 0 -40 94 -139 132 -139 56 0
118 88 118 169 0 36 -6 49 -34 77 -39 39 -75 44 -121 16z"/>
</g>
</svg>
